<?xml version="1.0" standalone="no"?>
<!DOCTYPE svg PUBLIC "-//W3C//DTD SVG 20010904//EN"
 "http://www.w3.org/TR/2001/REC-SVG-20010904/DTD/svg10.dtd">
<svg version="1.0" xmlns="http://www.w3.org/2000/svg"
 width="500.000000pt" height="500.000000pt" viewBox="0 0 500.000000 500.000000"
 preserveAspectRatio="xMidYMid meet">
<metadata>
Created by potrace 1.11, written by Peter Selinger 2001-2013
</metadata>
<g transform="translate(0.000000,500.000000) scale(0.100000,-0.100000)"
fill="#000000" stroke="none">
<path d="M2215 4984 c-55 -7 -145 -22 -200 -33 -55 -12 -112 -24 -126 -27
-127 -25 -403 -135 -574 -227 -74 -40 -263 -161 -309 -198 -265 -213 -435
-394 -584 -624 -36 -55 -73 -111 -82 -125 -52 -78 -186 -379 -218 -490 -37
-126 -52 -184 -67 -255 -9 -44 -18 -87 -20 -95 -2 -9 -6 -43 -10 -75 -4 -33
-10 -69 -13 -80 -3 -11 -8 -635 -9 -1387 l-4 -1368 2501 0 2501 0 -4 1363 c-2
749 -6 1378 -10 1397 -4 19 -9 58 -12 85 -4 28 -8 57 -10 65 -2 8 -7 31 -10
50 -3 19 -15 73 -26 120 -232 964 -1044 1724 -2014 1884 -49 8 -106 18 -125
21 -74 13 -475 12 -575 -1z"/>
</g>
</svg>
