<svg width="48" height="47.99999999999999" xmlns="http://www.w3.org/2000/svg">
 <g id="Layer_1">
  <title>Layer 1</title>
  <path stroke="#000" stroke-width="4" id="svg_1" d="m5.08324,11.57749l0,0c-0.10496,-3.35927 2.55213,-6.56322 6.45826,-6.45826l25.83225,0l0,0c2.81241,0.12941 6.56322,3.88021 6.45825,6.45826l0,25.83225l0,0c0.02684,3.51551 -2.63025,6.32885 -6.45825,6.45825l-25.83225,0c-3.828,0.02684 -6.56322,-3.02086 -6.45826,-6.45825l0,-25.83225z" fill="#ffffff00"/>
  <path stroke="#000" id="svg_2" d="m11.03853,36.6766l26.80363,-0.12506l-5.15781,-10.58925c-2.58662,1.87384 -5.17323,3.74769 -7.75984,5.62153c-2.79924,-3.67601 -5.59847,-7.35202 -8.3977,-11.02803l-5.48828,16.12081z" stroke-width="3" fill="#ffffff00"/>
  <ellipse stroke="#000" ry="3.37013" rx="3.37013" id="svg_3" cy="15.16094" cx="33.57165" stroke-width="3" fill="#ffffff00"/>
 </g>
</svg>