<svg width="47.99999999999999" height="47.99999999999999" xmlns="http://www.w3.org/2000/svg">
 <g id="Layer_1">
  <title>Layer 1</title>
  <path stroke="#000" fill="none" stroke-width="3" d="m10.72205,11.65203c-0.01893,1.13308 -0.03786,2.26616 -0.05679,3.39924c9.07884,0 18.1577,0 27.23654,0c0.05683,-1.13308 0.11368,-2.26616 0.17051,-3.39924l-9.50471,-0.41744l-1.20319,-2.72827l-5.12796,-0.01491l-1.66852,2.50464c-3.28196,0.29817 -6.56392,0.35781 -9.84588,0.65598z" id="svg_1"/>
  <path stroke="#000" fill="none" stroke-width="3" d="m10.91712,15.30509l3.09563,26.65666l20.37442,-0.23854l3.20813,-26.29877l-26.67818,-0.11935z" id="svg_3"/>
  <path stroke="#000" fill="none" d="m24.45311,20.65169l0.00611,14.61118l-0.00611,-14.61118z" id="svg_5" stroke-width="3"/>
  <path stroke="#000" fill="none" d="m30.27546,35.10829l1.05664,-14.24746l-1.05664,14.24746z" id="svg_6" stroke-width="3"/>
  <path stroke="#000" fill="none" d="m17.35082,21.09383l1.07597,14.08413l-1.07597,-14.08413z" id="svg_4" stroke-width="3"/>
 </g>

</svg>